<?xml version="1.0" encoding="utf-8"?>
<!-- Generator: Adobe Illustrator 26.0.0, SVG Export Plug-In . SVG Version: 6.00 Build 0)  -->
<svg version="1.1" id="Layer_1" xmlns="http://www.w3.org/2000/svg" xmlns:xlink="http://www.w3.org/1999/xlink" x="0px" y="0px"
	 viewBox="0 0 20 20" style="enable-background:new 0 0 20 20;" xml:space="preserve">
<style type="text/css">
	.st0{fill:#502687;}
	.st1{fill:#502788;}
	.st2{fill:#532A8A;}
</style>
<g>
	<path class="st0" d="M16.5,15.1c-1.9,0-3.4-1.2-3.9-3c-0.5-1.8,0.3-3.9,1.9-4.7c1.6-0.9,3.6-0.7,4.7,0.6c0.4,0.4,1.2,1,0.5,1.6
		c-0.5,0.4-1.2,0.8-1.9-0.1c-0.7-1-1.8-0.8-2.6,0c-0.8,0.8-0.9,1.9-0.2,2.9c0.6,1,1.6,1.2,2.6,0.6c0.3-0.2,0.5-0.5,0.8-0.6
		c0.5-0.2,1.1-0.1,1.5,0.3c0.4,0.5,0,0.9-0.3,1.2C18.9,14.6,17.7,15.1,16.5,15.1z"/>
	<path class="st1" d="M2.9,15.1c-0.7,0-1.6-0.3-2.3-1c-0.4-0.3-0.9-0.8-0.5-1.3c0.4-0.5,1-0.5,1.6-0.1c0.3,0.2,0.5,0.5,0.8,0.7
		c0.6,0.3,1.4,0.3,1.7-0.4c0.4-0.9-0.5-0.8-1-1c-0.3-0.1-0.7-0.1-1-0.3C1,11.2,0,10.7,0.1,9.2c0.1-1.5,1.2-2.1,2.5-2.3
		C3.9,6.7,5.2,7,6,8.3c0.6,1-0.4,1-1,1.1c-0.2,0-0.5-0.1-0.6-0.2C3.8,8.4,3.1,8.4,2.3,8.7C2.1,8.8,2,9.1,2.1,9.3
		c0.4,0.8,1.2,0.6,1.9,0.8c1.4,0.4,2.6,1,2.4,2.7C6.2,14.2,4.8,15.1,2.9,15.1z"/>
	<path class="st2" d="M9.6,7.2C9.6,7.2,9.6,7.2,9.6,7.2C9.6,7.2,9.6,7.2,9.6,7.2C9.6,7.2,9.6,7.2,9.6,7.2C9.6,7.1,9.6,7.1,9.6,7.2z"
		/>
	<path class="st2" d="M11.2,14.9c-1.2,0.5-2.6-0.1-3.3-1.4C7.3,12.3,7.7,11,7.6,9.8C7.6,9.2,7.9,9,8.4,9C10,9.3,9.7,8.2,9.6,7.2
		c0.8,0.2,2.3-0.9,2.2,1.1c0,0.3,0,0.7-0.4,0.7C9,8.7,9.8,10.5,9.7,11.8c0,0.2,0,0.5-0.1,0.7c0.3,0.5,0.7,0.8,1.3,0.7
		c0.4,0,0.8-0.2,0.9,0.5C11.8,14.2,11.8,14.7,11.2,14.9z"/>
	<path class="st2" d="M9.6,7.1C8.9,7,8,7.6,7.6,6.6C7.5,6.2,7.4,5.6,7.8,5.1c0.4-0.4,1-0.2,1.5-0.2c0.7,0.1,0.4,0.7,0.4,1.1
		C9.7,6.5,9.6,6.8,9.6,7.1z"/>
</g>
</svg>
